<svg id="Capa_1" enable-background="new 0 0 512 512" height="512" viewBox="0 0 512 512" width="512" xmlns="http://www.w3.org/2000/svg"><g><path d="m196 128 60 384 221.703-128v-256z" fill="#f71e45"/><path d="m34.298 128-.001 256 221.703 128v-384z" fill="#fa4350"/><path d="m477.703 128-221.703-128v256z" fill="#fa4350"/><path d="m34.298 128 221.702 128v-256z" fill="#fc6356"/><path d="m397.654 174.216-141.654-174.216-45 219.216z" fill="#ff835d"/><path d="m256 0-141.654 174.216 141.654 45z" fill="#fc9f63"/><path d="m114.346 174.216-80.049 209.784 221.703 35.568-15-200.352z" fill="#fc6356"/><path d="m271 219.216-15 200.352 221.703-35.568-80.049-209.784z" fill="#fa4350"/><path d="m256 174.216-45 122.676 45 122.676 141.654-245.352z" fill="#fc6356"/><path d="m114.346 174.216 141.654 245.352v-245.352z" fill="#ff835d"/></g></svg>