<svg id="Capa_1" enable-background="new 0 0 510 510" height="512" viewBox="0 0 510 510" width="512" xmlns="http://www.w3.org/2000/svg"><g><path d="m255 0-221.702 128v254l221.702 128 221.702-128v-254zm107.524 315h-215.05l107.526-167.261zm-238.902-18.373-54.371-146.607 156.739-12.633zm234.438 48.373-103.06 124.191-103.06-124.191zm28.318-48.373-102.368-159.24 156.739 12.633zm-116.378-190.467v-62.859l126.541 73.059zm-30 0-126.541 10.199 126.541-73.058zm-138.379 217.422-38.323 23.164v-126.5zm15.084 25.937 73.279 88.304-112.199-64.779zm276.589 0 38.921 23.525-112.199 64.778zm15.085-25.938 38.323-103.336v126.501z"/></g></svg>